<svg xmlns="http://www.w3.org/2000/svg" version="1.1" xmlns:xlink="http://www.w3.org/1999/xlink" xmlns:svgjs="http://svgjs.dev/svgjs" width="1000" height="879" viewBox="0 0 1000 879"><g transform="matrix(1,0,0,1,-0.7082515241223177,0.3565276027539994)"><svg viewBox="0 0 281 247" data-background-color="#ffffff" preserveAspectRatio="xMidYMid meet" height="879" width="1000" xmlns="http://www.w3.org/2000/svg" xmlns:xlink="http://www.w3.org/1999/xlink"><g id="tight-bounds" transform="matrix(1,0,0,1,0.19945331151717482,-0.09997365579206985)"><svg viewBox="0 0 280.601485254792 247.2" height="247.2" width="280.601485254792"><g><svg viewBox="0 0 280.601485254792 247.2" height="247.2" width="280.601485254792"><g><svg viewBox="0 0 280.601485254792 247.2" height="247.2" width="280.601485254792"><g id="textblocktransform"><svg viewBox="0 0 280.601485254792 247.2" height="247.2" width="280.601485254792" id="textblock"><g><svg viewBox="0 0 280.601485254792 247.2" height="247.2" width="280.601485254792"><path d="M279.945 53.02C278.625 27.36 274.866 20.227 274.866 20.227 263.323-6.202 248.918-0.506 235.977 3.292 213.129 3.446 190.373 9.091 167.578 12.119 119.732 12.581 71.476 4.986 23.868 23.717 19.396 29.464-4.64 24.846 0.795 56.304 2.22 69.39 7.418 83.913 7.259 95.922 7.972 98.026 8.961 93.202 9.383 96.23 10.861 104.39 13.275 100.541 15.254 105.365 12.496 118.246 14.475 128.971 16.362 140.21 13.037 143.135 8.776 141.749 6.864 151.449 6.666 158.479 5.597 157.145 4.423 156.837 3.566 156.632 1.838 157.402 2.128 159.608 3.117 167.152-1.131 171.514 1.534 178.904-0.299 186.91 2.801 193.838 2.378 202.511 2.326 204.255 2.616 205.744 3.078 206.154 5.122 208.361 2.141 212.672 2.458 217.342 23.432 249.262 46.188 227.195 67.677 241.872 73.257 231.608 69.062 245.516 71.292 243.36 73.033 240.846 74.299 251.263 76.265 245.362 76.568 243.668 76.107 239.665 77.188 240.435 77.756 240.846 78.257 240.743 78.336 238.382 78.455 234.841 77.413 237.048 77.136 235.201 80.13 225.861 79.391 248.081 82.201 247.158 82.069 244.438 81.251 240.538 82.927 241.051 84.589 237.151 84.642 233.918 86.119 242.693 86.172 244.592 86.436 245.926 86.858 246.85 91.475 237.305 96.066 250.237 100.907 245.926 103.875 241.205 106.725 248.492 109.732 246.696 110.788 245.259 111.856 242.693 112.872 247.004 125.312 247.928 138.569 244.079 150.363 247.158 181.878 241.41 215.556 249.518 248.786 241.923 256.622 238.998 264.761 234.841 272.399 231.506 272.399 231.506 278.586 222.371 278.586 181.316S279.905 145.393 280.103 112.703C280.301 80.013 281.224 78.679 279.905 53.02Z" opacity="1" fill="#0718c4" data-fill-palette-color="tertiary"></path><g transform="matrix(1,0,0,1,55.76832000000002,26.230666666666668)"><svg width="169.06484525479198" viewBox="3.4000000953674316 -35 30.94999885559082 35.650001525878906" height="194.73866666666666" data-palette-color="#ffffff"><path d="M20.45-20.75Q27.05-18.85 30.7-16.2 34.35-13.55 34.35-9.15L34.35-9.15Q34.35-6.1 32.8-3.9 31.25-1.7 28.55-0.53 25.85 0.65 22.45 0.65L22.45 0.65Q19.25 0.65 16.3-0.6 13.35-1.85 10.45-4.15L10.45-4.15 10.45-0.05 3.4-0.05 3.4-12.55 8.4-12.8Q11-9.65 14.9-7.68 18.8-5.7 21.9-5.7L21.9-5.7Q23.75-5.7 24.83-6.35 25.9-7 25.9-8.3L25.9-8.3Q25.9-9.85 23.45-11.15 21-12.45 14.95-14.1L14.95-14.1Q8.95-15.75 6.2-18.43 3.45-21.1 3.45-25.15L3.45-25.15Q3.45-28.1 5.1-30.33 6.75-32.55 9.45-33.77 12.15-35 15.2-35L15.2-35Q21.35-35 25.5-31.15L25.5-31.15 25.5-34.3 32.55-34.3 32.55-22.15 27.8-21.9Q26.15-25.1 23.23-26.88 20.3-28.65 17.25-28.65L17.25-28.65Q14.85-28.65 13.38-27.8 11.9-26.95 11.9-25.5L11.9-25.5Q11.9-24.1 13.75-23.08 15.6-22.05 20.45-20.75L20.45-20.75Z" opacity="1" transform="matrix(1,0,0,1,0,0)" fill="#ffffff" class="wordmark-text-0" data-fill-palette-color="quaternary" id="text-0"></path></svg></g></svg></g></svg></g></svg></g><g></g></svg></g><defs></defs></svg><rect width="280.601485254792" height="247.2" fill="none" stroke="none" visibility="hidden"></rect></g></svg></g></svg>